<?xml version="1.0" encoding="utf-8"?>
<!-- Generator: Adobe Illustrator 25.2.0, SVG Export Plug-In . SVG Version: 6.00 Build 0)  -->
<svg version="1.1" id="Layer_1" xmlns="http://www.w3.org/2000/svg" xmlns:xlink="http://www.w3.org/1999/xlink" x="0px" y="0px"
	 viewBox="0 0 229.2 52.1" style="enable-background:new 0 0 229.2 52.1;" xml:space="preserve">
<style type="text/css">
	.st0{enable-background:new    ;}
	.st1{fill:#425738;}
</style>
<g class="st0">
	<path class="st1" d="M18.7,35.8c-0.6-1.1-0.8-1.7-1.5-1.7H17c-0.6,0-1,0.3-1,1V47c0,1.7-1.4,3-5.7,3c-4.8,0-6.2-1.4-6.2-3
		c0-1.7,0.7-11.8,0.7-18.4V15c0-4.4-3.7-3.7-3.7-6c0-1.7,2.5-3.8,15.6-3.8h0.3c13,0,20.5,6,20.5,14.4c0,6.2-4.7,9.9-8.4,11.7
		c-1.8,0.9-2,1-2,1.4c0,0.4,0.4,0.8,1.4,2c4.2,4.8,5.3,6.3,6.8,6.3c1.1,0,1.8-0.7,2.8-0.7c1.2,0,1.6,1.2,1.6,2.2
		c0,2.8-1.9,8.1-8.4,8.1S23.2,45,18.7,35.8z M25.9,19.9c0-8.4-5.7-9.4-7.9-9.4h-0.1c-1.7,0-2,0.4-2,1.5v3v12.5
		c0,0.9,0.2,1.3,1.7,1.3C21.5,28.7,25.9,26.1,25.9,19.9z"/>
	<path class="st1" d="M44.2,46.9c0-0.7,0.9-5.8,0.9-21.3V13.7c0-6.8-3.8-5.3-3.8-7.7c0-2.4,5.3-3.6,8.9-3.6c3.8,0,5.5,2.1,5.5,6.6
		c0,3.5-0.2,8.2-0.2,10.6c0,0.9,0.1,1.1,0.5,1.1c1.4,0,2.9-4.5,9.7-4.5c7.1,0,9.8,5.9,9.8,11.6c0,3.2-0.9,8.8-0.9,11.4
		c0,6.1,4.6,4.2,4.6,6.6s-3.6,4.5-7.5,4.5c-4.6,0-7.6-2.7-7.6-8.8c0-4,0.6-10.4,0.6-13.5c0-3.1-0.7-5.3-3-5.3c-3.2,0-6,4.2-6,17.7
		v6.3c0,2-1,3.3-6,3.3C45.7,50,44.2,48.7,44.2,46.9z"/>
	<path class="st1" d="M94.3,39c0-2.5,0.6-12.2,0.6-15.7c0-0.7,0-1.3-0.1-1.8c-1.9,0.8-4.4,1.5-7.2,1.7c-1.8,0.1-3.6,0.1-5.2-0.1
		c0.8,1,1.6,2.9,1.6,7.2c0,3.4-0.6,8-0.6,10.8c0,6.5,3,9.2,7.6,9.2c4.2,0,7.7-2.1,7.7-4.5C98.9,43.1,94.3,45.4,94.3,39z"/>
	<path class="st1" d="M110.5,48c-2.9,0-4,1.6-6,1.6c-1.4,0-3.1-1-3.1-3.7c0-4,1.4-7.7,7.6-11.4l12-7.3c0.5-0.3,0.8-0.6,0.8-0.9
		c0-0.3-0.2-0.4-0.9-0.4h-10.4c-3.6,0-3.7,2.7-5.5,2.7c-1.8,0-3.3-2.8-3.3-5.8c0-3,2.2-6.4,7.5-6.4c5,0,9.1,2.2,11.8,2.2
		s4-1.6,6.2-1.6c1.3,0,3.2,1,3.2,5.1c0,5.1-2.4,7.6-7.3,10.5l-11.2,6.8c-0.4,0.2-0.8,0.4-0.8,0.8c0,0.3,0.3,0.5,0.8,0.5h9.7
		c4.9,0,4.9-2.7,6.9-2.7c1.7,0,2.6,2.4,2.6,5.3c0,4-2.6,7.6-7.9,7.6C117.9,50.7,113.5,48,110.5,48z"/>
	<path class="st1" d="M135,33.3c0-10.7,6.6-17.2,16.8-17.2c10.2,0,16.8,6.5,16.8,17.1c0,10.7-6.7,17.2-16.8,17.2
		C141.6,50.5,135,44,135,33.3z M157.2,33.3c0-8.7-1.8-12.2-5.4-12.2c-3.5,0-5.3,3.5-5.3,12.2c0,8.6,1.9,12.2,5.3,12.2
		C155.3,45.4,157.2,41.9,157.2,33.3z"/>
	<path class="st1" d="M174.5,46.9c0-1.7,1-8.9,1-17.2c0-8.2-4.4-6.6-4.4-9c0-2.7,5.7-4.2,8.8-4.2c5.7,0,3.7,5.2,5.2,5.2
		c1.4,0,3.4-5.5,10.4-5.5c6.3,0,6.9,5.8,8.1,5.8c1.2,0,3.4-5.8,10.4-5.8c7.1,0,9.8,5.9,9.8,11.6c0,3.2-0.9,8.8-0.9,11.4
		c0,6.1,4.6,4.2,4.6,6.6s-3.5,4.5-7.5,4.5c-4.6,0-7.6-2.7-7.6-8.8c0-4,0.6-10.4,0.6-13.5c0-3.1-0.7-5.3-2.8-5.3
		c-2.8,0-5.6,4.7-5.6,15.6c0,4.2,0.1,6.3,0.1,8.4c0,2-1,3.3-6,3.3c-3.9,0-5-1.3-5-3.1c0-1.7,0.7-9,0.5-18.9
		c-0.1-3.2-0.7-5.3-2.9-5.3c-2.7,0-5.5,4.2-5.5,17.7v6.3c0,2-1,3.3-6,3.3C176,50,174.5,48.7,174.5,46.9z"/>
</g>
<path class="st1" d="M86.2,1.4c-9.6,0.8-17,6.4-16.7,11.3c0.1,1.8,1.3,3.5,3.3,4.8c0.9,0.5,1.9,1,3,1.4l0.6-0.4
	c0.3-0.2,0.7-0.5,1.1-0.7c1.2-0.7,2.7-1.3,4.4-1.8c1.6-0.5,3.4-0.9,5.3-1.1c0.2-0.1,0.4-0.1,0.6-0.1c4.9-0.4,6.8,0.4,9.5,2
	c0.1,0,0.1,0,0.1,0c1,0,1.5,0,2-0.2c0.5-0.2,1.1-0.6,2.3-1.4c1.9-1.6,2.8-3.4,2.7-5.2C104.1,5.1,95.8,0.7,86.2,1.4z M98.1,11.4
	c-0.5,1.6-2.8,2.2-5.2,1.5c-2.4-0.8-3.9-2.6-3.4-4.2s2.8-2.3,5.2-1.5S98.6,9.9,98.1,11.4z"/>
<path class="st1" d="M102.4,12.8c0.3,3.2-6.2,6.4-14.5,7.3c-8.3,0.8-15.3-1.1-15.6-4.3c-0.3-3.2,6.2-6.4,14.5-7.3
	c1-0.1,1.9-0.2,2.9-0.2c-0.1,0.1-0.1,0.3-0.2,0.4c-0.5,1.6,1,3.5,3.4,4.2c2.4,0.8,4.7,0.1,5.2-1.5c0.2-0.8,0-1.6-0.6-2.3
	C100.4,9.9,102.3,11.2,102.4,12.8z"/>
</svg>
