<?xml version="1.0" encoding="utf-8"?>
<!-- Generator: Adobe Illustrator 25.2.0, SVG Export Plug-In . SVG Version: 6.00 Build 0)  -->
<svg version="1.1" id="Layer_1" xmlns="http://www.w3.org/2000/svg" xmlns:xlink="http://www.w3.org/1999/xlink" x="0px" y="0px"
	 viewBox="0 0 120 93" style="enable-background:new 0 0 120 93;" xml:space="preserve">
<style type="text/css">
	.st0{fill:#FFFFFF;}
	.st1{enable-background:new    ;}
</style>
<g id="Gruppe_5" transform="translate(-196 -502.667)">
	<path id="Pfad_2" class="st0" d="M256.2,504.4c32.3,0,58.5,16,58.5,35.7s-26.2,35.7-58.5,35.7s-58.5-16-58.5-35.7
		S223.9,504.4,256.2,504.4z"/>
	<path id="Polygon_1" class="st0" d="M253.4,575.7l-27.2,18.5l-4.7-26.6L253.4,575.7z"/>
	<g class="st1">
		<path d="M213,535.4c-0.2-0.4-0.6-0.9-1-1.2c-0.3-0.2-0.9-0.6-1.9-0.6c-1.6,0-2.8,1-2.8,2.6c0,0.7,0.2,1,0.6,1.5
			c0.5,0.5,1.1,0.8,1.7,1l1.6,0.7c1,0.4,1.9,0.9,2.6,1.6c0.8,0.8,1.2,1.8,1.2,3c0,3.1-2.3,5.1-5.3,5.1c-1.1,0-2.5-0.2-3.6-1.3
			c-0.8-0.8-1.3-1.9-1.5-2.9l1.8-0.5c0.1,0.9,0.5,1.6,1,2.1c0.7,0.7,1.5,0.9,2.4,0.9c2.3,0,3.3-1.6,3.3-3.3c0-0.8-0.2-1.4-0.8-1.9
			c-0.5-0.5-1.1-0.8-2-1.1l-1.5-0.7c-0.6-0.3-1.5-0.6-2.2-1.4c-0.7-0.7-1.1-1.5-1.1-2.7c0-2.6,2-4.3,4.7-4.3c1,0,1.8,0.2,2.7,0.8
			c0.7,0.5,1.2,1.1,1.6,1.8L213,535.4z"/>
		<path d="M226.2,541.3c-0.9-1.2-2.3-1.5-3.2-1.5c-1.9,0-3.7,1.3-3.7,3.9s1.8,3.8,3.6,3.8c1.1,0,2.4-0.5,3.3-1.6v2.1
			c-1.1,0.8-2.3,1.1-3.3,1.1c-3.2,0-5.5-2.3-5.5-5.4c0-3.2,2.3-5.5,5.5-5.5c1.6,0,2.7,0.6,3.2,1V541.3z"/>
		<path d="M236.9,538.4h1.8v10.4h-1.8v-1.4c-0.6,0.8-1.7,1.7-3.5,1.7c-2.6,0-5-1.8-5-5.5c0-3.6,2.4-5.4,5-5.4c2,0,3.1,1.1,3.5,1.7
			V538.4z M230.2,543.5c0,2.2,1.2,3.9,3.4,3.9c2.2,0,3.4-1.8,3.4-3.9c0-2.7-1.8-3.8-3.4-3.8C231.8,539.7,230.2,541,230.2,543.5z"/>
		<path d="M242.1,538.4h1.8v1.2c0.3-0.4,1.2-1.4,3-1.4c1.2,0,2.3,0.5,3,1.4c0.5,0.8,0.6,1.6,0.6,2.8v6.4h-1.8v-6.4
			c0-0.6-0.1-1.3-0.5-1.9c-0.3-0.4-0.9-0.7-1.7-0.7c-0.6,0-1.3,0.2-1.8,0.8c-0.7,0.8-0.8,2-0.8,2.8v5.4h-1.8V538.4z"/>
		<path d="M259.7,538.4h1.8v1.1c0.6-0.8,1.5-1.3,2.6-1.3c1.9,0,2.6,1.3,2.8,1.7c1-1.6,2.4-1.7,3.1-1.7c3.1,0,3.4,2.6,3.4,4v6.6h-1.8
			v-6.3c0-1.2-0.2-2.7-1.8-2.7c-2.1,0-2.3,2-2.3,3.2v5.8h-1.8v-6.1c0-0.7,0-2.9-1.9-2.9c-2,0-2.3,2.1-2.3,3.4v5.6h-1.8V538.4z"/>
		<path d="M277.7,533.2c0.7,0,1.3,0.6,1.3,1.3c0,0.7-0.6,1.3-1.3,1.3c-0.7,0-1.3-0.6-1.3-1.3C276.5,533.7,277,533.2,277.7,533.2z
			 M278.6,538.4v10.4h-1.8v-10.4H278.6z"/>
		<path d="M290.2,541.3c-1-1.2-2.3-1.5-3.2-1.5c-1.9,0-3.7,1.3-3.7,3.9s1.8,3.8,3.6,3.8c1.1,0,2.4-0.5,3.3-1.6v2.1
			c-1.1,0.8-2.3,1.1-3.3,1.1c-3.2,0-5.5-2.3-5.5-5.4c0-3.2,2.3-5.5,5.5-5.5c1.6,0,2.7,0.6,3.2,1V541.3z"/>
		<path d="M293,530.5h1.8v9c0.3-0.4,1.2-1.4,3-1.4c1.2,0,2.3,0.5,3,1.4c0.5,0.8,0.6,1.6,0.6,2.8v6.4h-1.8v-6.4
			c0-0.6-0.1-1.3-0.5-1.9c-0.3-0.4-0.9-0.7-1.7-0.7c-0.6,0-1.3,0.2-1.8,0.8c-0.7,0.8-0.8,2-0.8,2.8v5.4H293V530.5z"/>
		<path d="M306.5,546.5c0.7,0,1.2,0.6,1.2,1.2s-0.6,1.2-1.2,1.2s-1.2-0.6-1.2-1.2S305.9,546.5,306.5,546.5z M305.6,545.4v-13.3h1.8
			v13.3H305.6z"/>
	</g>
</g>
</svg>
